<svg xmlns="http://www.w3.org/2000/svg" viewBox="0 0 64 64" fill="none">
  <rect width="64" height="64" rx="14" fill="#FBF7F0"/>
  <path d="M15 40.5C15 39.1193 16.1193 38 17.5 38H24.5C25.8807 38 27 39.1193 27 40.5V47.5C27 48.8807 25.8807 50 24.5 50H17.5C16.1193 50 15 48.8807 15 47.5V40.5Z" fill="#164B35"/>
  <path d="M28 40.5C28 39.1193 29.1193 38 30.5 38H43.5C44.8807 38 46 39.1193 46 40.5V47.5C46 48.8807 44.8807 50 43.5 50H30.5C29.1193 50 28 48.8807 28 47.5V40.5Z" fill="#164B35"/>
  <path d="M22 30.5C22 29.1193 23.1193 28 24.5 28H31.5C32.8807 28 34 29.1193 34 30.5V37.5C34 38.8807 32.8807 40 31.5 40H24.5C23.1193 40 22 38.8807 22 37.5V30.5Z" fill="#164B35"/>
  <path d="M35 30.5C35 29.1193 36.1193 28 37.5 28H44.5C45.8807 28 47 29.1193 47 30.5V37.5C47 38.8807 45.8807 40 44.5 40H37.5C36.1193 40 35 38.8807 35 37.5V30.5Z" fill="#164B35"/>
  <path d="M35 20.5C35 19.1193 36.1193 18 37.5 18H44.5C45.8807 18 47 19.1193 47 20.5V27.5C47 28.8807 45.8807 30 44.5 30H37.5C36.1193 30 35 28.8807 35 27.5V20.5Z" fill="#164B35"/>
  <path d="M36.5323 15.2218C35.4268 16.0464 36.01 17.8 37.3891 17.8H44.6468C45.9467 17.8 46.5764 16.1838 45.6121 15.3123L40.9582 11.1068C40.2419 10.4595 39.1602 10.4005 38.3783 10.9651L36.5323 12.2982L36.5323 15.2218Z" fill="#164B35"/>
</svg>
